<svg width="512" height="512" viewBox="0 0 512 512" fill="none" xmlns="http://www.w3.org/2000/svg">
  <!-- Outer Glow/Stroke for better visibility on dark/light tabs -->
  <circle cx="256" cy="256" r="240" fill="#1B5E20" />
  
  <!-- Main Chat Bubble (Larger Scale) -->
  <path d="M480 256C480 379.712 379.712 480 256 480C213.5 480 174 468 140 447L32 480L65 372C44.5 338 32 298.5 32 256C32 132.288 132.288 32 256 32C379.712 32 480 132.288 480 256Z" fill="#31D0AA"/>
  
  <!-- Inner Bubble Shade -->
  <circle cx="256" cy="256" r="200" fill="#2E7D32" fill-opacity="0.3"/>

  <!-- Robot Head (Scaled Up to fill the bubble) -->
  <rect x="116" y="176" width="280" height="180" rx="90" fill="white" stroke="#001510" stroke-width="12"/>
  
  <!-- Robot Eyes/Visor Area -->
  <rect x="156" y="216" width="200" height="80" rx="40" fill="#001510"/>
  
  <!-- Glowing Eyes (Bigger for Favicon) -->
  <circle cx="206" cy="256" r="22" fill="#31D0AA" />
  <circle cx="306" cy="256" r="22" fill="#31D0AA" />
  
  <!-- Antenna with Glow -->
  <rect x="251" y="136" width="10" height="40" fill="#001510"/>
  <circle cx="256" cy="126" r="20" fill="#31D0AA" stroke="#001510" stroke-width="5"/>
</svg>
